<svg version="1.1" xmlns="http://www.w3.org/2000/svg" xmlns:xlink="http://www.w3.org/1999/xlink" width="1156" height="600"><defs><clipPath id="pemnnbFVtxNo"><path fill="none" stroke="none" d=" M 0 0 L 1156 0 L 1156 600 L 0 600 L 0 0 Z"/></clipPath></defs><g transform="scale(1,1)" clip-path="url(#pemnnbFVtxNo)"><g><rect fill="rgb(255,255,255)" stroke="none" x="0" y="0" width="1156" height="600" fill-opacity="1"/><path fill="none" stroke="rgb(97,97,97)" paint-order="fill stroke markers" d=" M 96.68096837726308 273.41256487513044 L 204.1564878422738 170.71373516412018" stroke-opacity="0.8" stroke-linecap="round" stroke-linejoin="round" stroke-miterlimit="10" stroke-width="2.5"/><path fill="none" stroke="rgb(97,97,97)" paint-order="fill stroke markers" d=" M 96.68096837726308 273.41256487513044 L 103.8460030082638 383.2764292171414" stroke-opacity="0.8" stroke-linecap="round" stroke-linejoin="round" stroke-miterlimit="10" stroke-width="2.5"/><path fill="none" stroke="rgb(97,97,97)" paint-order="fill stroke markers" d=" M 103.8460030082638 383.2764292171414 L 180.27303907227142 457.31512040414884" stroke-opacity="0.8" stroke-linecap="round" stroke-linejoin="round" stroke-miterlimit="10" stroke-width="2.5"/><path fill="none" stroke="rgb(97,97,97)" paint-order="fill stroke markers" d=" M 180.27303907227142 457.31512040414884 L 292.52524829128265 404.7715331101436" stroke-opacity="0.8" stroke-linejoin="round" stroke-miterlimit="10" stroke-width="2.5" stroke-dasharray="2.5,3"/><path fill="none" stroke="rgb(97,97,97)" paint-order="fill stroke markers" d=" M 292.52524829128265 404.7715331101436 L 297.3019380452831 266.24753024412973" stroke-opacity="0.8" stroke-linejoin="round" stroke-miterlimit="10" stroke-width="2.5" stroke-dasharray="2.5,3"/><path fill="none" stroke="rgb(97,97,97)" paint-order="fill stroke markers" d=" M 297.3019380452831 266.24753024412973 L 204.1564878422738 170.71373516412018" stroke-opacity="0.8" stroke-linejoin="round" stroke-miterlimit="10" stroke-width="2.5" stroke-dasharray="2.5,3"/><path fill="none" stroke="rgb(97,97,97)" paint-order="fill stroke markers" d=" M 204.1564878422738 170.71373516412018 L 435.8259409112969 142.05359664011735" stroke-opacity="0.8" stroke-linecap="round" stroke-linejoin="round" stroke-miterlimit="10" stroke-width="2.5"/><path fill="none" stroke="rgb(97,97,97)" paint-order="fill stroke markers" d=" M 435.8259409112969 142.05359664011735 L 672.2720837343205 142.05359664011735" stroke-opacity="0.8" stroke-linecap="round" stroke-linejoin="round" stroke-miterlimit="10" stroke-width="2.5"/><path fill="none" stroke="rgb(97,97,97)" paint-order="fill stroke markers" d=" M 672.2720837343205 142.05359664011735 L 880.0580880333413 132.5002171321164" stroke-opacity="0.8" stroke-linecap="round" stroke-linejoin="round" stroke-miterlimit="10" stroke-width="2.5"/><path fill="none" stroke="rgb(97,97,97)" paint-order="fill stroke markers" d=" M 880.0580880333413 132.5002171321164 L 968.42684848235 218.48063270412496" stroke-opacity="0.8" stroke-linecap="round" stroke-linejoin="round" stroke-miterlimit="10" stroke-width="2.5"/><path fill="none" stroke="rgb(97,97,97)" paint-order="fill stroke markers" d=" M 968.42684848235 218.48063270412496 L 1063.9606435623596 309.23773803013404" stroke-opacity="0.8" stroke-linecap="round" stroke-linejoin="round" stroke-miterlimit="10" stroke-width="2.5"/><path fill="none" stroke="rgb(97,97,97)" paint-order="fill stroke markers" d=" M 1063.9606435623596 309.23773803013404 L 923.0482958193454 462.0918101581493" stroke-opacity="0.8" stroke-linecap="round" stroke-linejoin="round" stroke-miterlimit="10" stroke-width="2.5"/><path fill="none" stroke="rgb(97,97,97)" paint-order="fill stroke markers" d=" M 923.0482958193454 462.0918101581493 L 815.5727763543348 297.2960136451328" stroke-opacity="0.8" stroke-linejoin="round" stroke-miterlimit="10" stroke-width="2.5" stroke-dasharray="2.5,3"/><path fill="none" stroke="rgb(97,97,97)" paint-order="fill stroke markers" d=" M 815.5727763543348 297.2960136451328 L 880.0580880333413 132.5002171321164" stroke-opacity="0.8" stroke-linejoin="round" stroke-miterlimit="10" stroke-width="2.5" stroke-dasharray="2.5,3"/><path fill="none" stroke="rgb(97,97,97)" paint-order="fill stroke markers" d=" M 576.738288654311 548.0722257301579 L 672.2720837343205 142.05359664011735" stroke-opacity="0.8" stroke-linejoin="round" stroke-miterlimit="10" stroke-width="2.5" stroke-dasharray="2.5,3"/><path fill="none" stroke="rgb(97,97,97)" paint-order="fill stroke markers" d=" M 576.738288654311 548.0722257301579 L 435.8259409112969 142.05359664011735" stroke-opacity="0.8" stroke-linejoin="round" stroke-miterlimit="10" stroke-width="2.5" stroke-dasharray="2.5,3"/><path fill="none" stroke="rgb(97,97,97)" paint-order="fill stroke markers" d=" M 180.27303907227142 457.31512040414884 L 576.738288654311 548.0722257301579" stroke-opacity="0.8" stroke-linecap="round" stroke-linejoin="round" stroke-miterlimit="10" stroke-width="2.5"/><path fill="none" stroke="rgb(97,97,97)" paint-order="fill stroke markers" d=" M 576.738288654311 548.0722257301579 L 923.0482958193454 462.0918101581493" stroke-opacity="0.8" stroke-linecap="round" stroke-linejoin="round" stroke-miterlimit="10" stroke-width="2.5"/><path fill="rgb(21,101,192)" stroke="none" paint-order="stroke fill markers" d=" M 209.1564878422738 170.71373516412018 C 209.1564878422738 173.47515891327416 206.91791159142778 175.71373516412018 204.1564878422738 175.71373516412018 C 201.39506409311983 175.71373516412018 199.1564878422738 173.47515891327416 199.1564878422738 170.71373516412018 C 199.1564878422738 167.9523114149662 201.39506409311983 165.71373516412018 204.1564878422738 165.71373516412018 C 206.91791159142778 165.71373516412018 209.1564878422738 167.9523114149662 209.1564878422738 170.71373516412018 Z" fill-opacity="1"/><path fill="none" stroke="rgb(0,0,0)" paint-order="fill stroke markers" d=" M 209.1564878422738 170.71373516412018 C 209.1564878422738 173.47515891327416 206.91791159142778 175.71373516412018 204.1564878422738 175.71373516412018 C 201.39506409311983 175.71373516412018 199.1564878422738 173.47515891327416 199.1564878422738 170.71373516412018 C 199.1564878422738 167.9523114149662 201.39506409311983 165.71373516412018 204.1564878422738 165.71373516412018 C 206.91791159142778 165.71373516412018 209.1564878422738 167.9523114149662 209.1564878422738 170.71373516412018 Z" stroke-opacity="1" stroke-linecap="round" stroke-linejoin="round" stroke-miterlimit="10"/><path fill="rgb(21,101,192)" stroke="none" paint-order="stroke fill markers" d=" M 101.68096837726308 273.41256487513044 C 101.68096837726308 276.1739886242844 99.44239212641705 278.41256487513044 96.68096837726308 278.41256487513044 C 93.91954462810912 278.41256487513044 91.68096837726308 276.1739886242844 91.68096837726308 273.41256487513044 C 91.68096837726308 270.6511411259765 93.91954462810912 268.41256487513044 96.68096837726308 268.41256487513044 C 99.44239212641705 268.41256487513044 101.68096837726308 270.6511411259765 101.68096837726308 273.41256487513044 Z" fill-opacity="1"/><path fill="none" stroke="rgb(0,0,0)" paint-order="fill stroke markers" d=" M 101.68096837726308 273.41256487513044 C 101.68096837726308 276.1739886242844 99.44239212641705 278.41256487513044 96.68096837726308 278.41256487513044 C 93.91954462810912 278.41256487513044 91.68096837726308 276.1739886242844 91.68096837726308 273.41256487513044 C 91.68096837726308 270.6511411259765 93.91954462810912 268.41256487513044 96.68096837726308 268.41256487513044 C 99.44239212641705 268.41256487513044 101.68096837726308 270.6511411259765 101.68096837726308 273.41256487513044 Z" stroke-opacity="1" stroke-linecap="round" stroke-linejoin="round" stroke-miterlimit="10"/><path fill="rgb(21,101,192)" stroke="none" paint-order="stroke fill markers" d=" M 108.8460030082638 383.2764292171414 C 108.8460030082638 386.03785296629536 106.60742675741777 388.2764292171414 103.8460030082638 388.2764292171414 C 101.08457925910984 388.2764292171414 98.8460030082638 386.03785296629536 98.8460030082638 383.2764292171414 C 98.8460030082638 380.51500546798746 101.08457925910984 378.2764292171414 103.8460030082638 378.2764292171414 C 106.60742675741777 378.2764292171414 108.8460030082638 380.51500546798746 108.8460030082638 383.2764292171414 Z" fill-opacity="1"/><path fill="none" stroke="rgb(0,0,0)" paint-order="fill stroke markers" d=" M 108.8460030082638 383.2764292171414 C 108.8460030082638 386.03785296629536 106.60742675741777 388.2764292171414 103.8460030082638 388.2764292171414 C 101.08457925910984 388.2764292171414 98.8460030082638 386.03785296629536 98.8460030082638 383.2764292171414 C 98.8460030082638 380.51500546798746 101.08457925910984 378.2764292171414 103.8460030082638 378.2764292171414 C 106.60742675741777 378.2764292171414 108.8460030082638 380.51500546798746 108.8460030082638 383.2764292171414 Z" stroke-opacity="1" stroke-linecap="round" stroke-linejoin="round" stroke-miterlimit="10"/><path fill="rgb(21,101,192)" stroke="none" paint-order="stroke fill markers" d=" M 185.27303907227142 457.31512040414884 C 185.27303907227142 460.0765441533028 183.0344628214254 462.31512040414884 180.27303907227142 462.31512040414884 C 177.51161532311744 462.31512040414884 175.27303907227142 460.0765441533028 175.27303907227142 457.31512040414884 C 175.27303907227142 454.5536966549949 177.51161532311744 452.31512040414884 180.27303907227142 452.31512040414884 C 183.0344628214254 452.31512040414884 185.27303907227142 454.5536966549949 185.27303907227142 457.31512040414884 Z" fill-opacity="1"/><path fill="none" stroke="rgb(0,0,0)" paint-order="fill stroke markers" d=" M 185.27303907227142 457.31512040414884 C 185.27303907227142 460.0765441533028 183.0344628214254 462.31512040414884 180.27303907227142 462.31512040414884 C 177.51161532311744 462.31512040414884 175.27303907227142 460.0765441533028 175.27303907227142 457.31512040414884 C 175.27303907227142 454.5536966549949 177.51161532311744 452.31512040414884 180.27303907227142 452.31512040414884 C 183.0344628214254 452.31512040414884 185.27303907227142 454.5536966549949 185.27303907227142 457.31512040414884 Z" stroke-opacity="1" stroke-linecap="round" stroke-linejoin="round" stroke-miterlimit="10"/><path fill="rgb(21,101,192)" stroke="none" paint-order="stroke fill markers" d=" M 297.52524829128265 404.7715331101436 C 297.52524829128265 407.53295685929754 295.2866720404366 409.7715331101436 292.52524829128265 409.7715331101436 C 289.7638245421287 409.7715331101436 287.52524829128265 407.53295685929754 287.52524829128265 404.7715331101436 C 287.52524829128265 402.01010936098965 289.7638245421287 399.7715331101436 292.52524829128265 399.7715331101436 C 295.2866720404366 399.7715331101436 297.52524829128265 402.01010936098965 297.52524829128265 404.7715331101436 Z" fill-opacity="1"/><path fill="none" stroke="rgb(0,0,0)" paint-order="fill stroke markers" d=" M 297.52524829128265 404.7715331101436 C 297.52524829128265 407.53295685929754 295.2866720404366 409.7715331101436 292.52524829128265 409.7715331101436 C 289.7638245421287 409.7715331101436 287.52524829128265 407.53295685929754 287.52524829128265 404.7715331101436 C 287.52524829128265 402.01010936098965 289.7638245421287 399.7715331101436 292.52524829128265 399.7715331101436 C 295.2866720404366 399.7715331101436 297.52524829128265 402.01010936098965 297.52524829128265 404.7715331101436 Z" stroke-opacity="1" stroke-linecap="round" stroke-linejoin="round" stroke-miterlimit="10"/><path fill="rgb(21,101,192)" stroke="none" paint-order="stroke fill markers" d=" M 302.3019380452831 266.24753024412973 C 302.3019380452831 269.0089539932837 300.06336179443707 271.24753024412973 297.3019380452831 271.24753024412973 C 294.5405142961292 271.24753024412973 292.3019380452831 269.0089539932837 292.3019380452831 266.24753024412973 C 292.3019380452831 263.4861064949758 294.5405142961292 261.24753024412973 297.3019380452831 261.24753024412973 C 300.06336179443707 261.24753024412973 302.3019380452831 263.4861064949758 302.3019380452831 266.24753024412973 Z" fill-opacity="1"/><path fill="none" stroke="rgb(0,0,0)" paint-order="fill stroke markers" d=" M 302.3019380452831 266.24753024412973 C 302.3019380452831 269.0089539932837 300.06336179443707 271.24753024412973 297.3019380452831 271.24753024412973 C 294.5405142961292 271.24753024412973 292.3019380452831 269.0089539932837 292.3019380452831 266.24753024412973 C 292.3019380452831 263.4861064949758 294.5405142961292 261.24753024412973 297.3019380452831 261.24753024412973 C 300.06336179443707 261.24753024412973 302.3019380452831 263.4861064949758 302.3019380452831 266.24753024412973 Z" stroke-opacity="1" stroke-linecap="round" stroke-linejoin="round" stroke-miterlimit="10"/><path fill="rgb(21,101,192)" stroke="none" paint-order="stroke fill markers" d=" M 553.0781501303081 175.49042491812065 C 553.0781501303081 178.25184866727463 550.8395738794621 180.49042491812065 548.0781501303081 180.49042491812065 C 545.3167263811541 180.49042491812065 543.0781501303081 178.25184866727463 543.0781501303081 175.49042491812065 C 543.0781501303081 172.72900116896668 545.3167263811541 170.49042491812065 548.0781501303081 170.49042491812065 C 550.8395738794621 170.49042491812065 553.0781501303081 172.72900116896668 553.0781501303081 175.49042491812065 Z" fill-opacity="1"/><path fill="none" stroke="rgb(0,0,0)" paint-order="fill stroke markers" d=" M 553.0781501303081 175.49042491812065 C 553.0781501303081 178.25184866727463 550.8395738794621 180.49042491812065 548.0781501303081 180.49042491812065 C 545.3167263811541 180.49042491812065 543.0781501303081 178.25184866727463 543.0781501303081 175.49042491812065 C 543.0781501303081 172.72900116896668 545.3167263811541 170.49042491812065 548.0781501303081 170.49042491812065 C 550.8395738794621 170.49042491812065 553.0781501303081 172.72900116896668 553.0781501303081 175.49042491812065 Z" stroke-opacity="1" stroke-linecap="round" stroke-linejoin="round" stroke-miterlimit="10"/><path fill="rgb(21,101,192)" stroke="none" paint-order="stroke fill markers" d=" M 820.5727763543348 297.2960136451328 C 820.5727763543348 300.05743739428675 818.3342001034888 302.2960136451328 815.5727763543348 302.2960136451328 C 812.8113526051808 302.2960136451328 810.5727763543348 300.05743739428675 810.5727763543348 297.2960136451328 C 810.5727763543348 294.53458989597885 812.8113526051808 292.2960136451328 815.5727763543348 292.2960136451328 C 818.3342001034888 292.2960136451328 820.5727763543348 294.53458989597885 820.5727763543348 297.2960136451328 Z" fill-opacity="1"/><path fill="none" stroke="rgb(0,0,0)" paint-order="fill stroke markers" d=" M 820.5727763543348 297.2960136451328 C 820.5727763543348 300.05743739428675 818.3342001034888 302.2960136451328 815.5727763543348 302.2960136451328 C 812.8113526051808 302.2960136451328 810.5727763543348 300.05743739428675 810.5727763543348 297.2960136451328 C 810.5727763543348 294.53458989597885 812.8113526051808 292.2960136451328 815.5727763543348 292.2960136451328 C 818.3342001034888 292.2960136451328 820.5727763543348 294.53458989597885 820.5727763543348 297.2960136451328 Z" stroke-opacity="1" stroke-linecap="round" stroke-linejoin="round" stroke-miterlimit="10"/><path fill="rgb(21,101,192)" stroke="none" paint-order="stroke fill markers" d=" M 928.0482958193454 462.0918101581493 C 928.0482958193454 464.85323390730326 925.8097195684994 467.0918101581493 923.0482958193454 467.0918101581493 C 920.2868720701914 467.0918101581493 918.0482958193454 464.85323390730326 918.0482958193454 462.0918101581493 C 918.0482958193454 459.33038640899537 920.2868720701914 457.0918101581493 923.0482958193454 457.0918101581493 C 925.8097195684994 457.0918101581493 928.0482958193454 459.33038640899537 928.0482958193454 462.0918101581493 Z" fill-opacity="1"/><path fill="none" stroke="rgb(0,0,0)" paint-order="fill stroke markers" d=" M 928.0482958193454 462.0918101581493 C 928.0482958193454 464.85323390730326 925.8097195684994 467.0918101581493 923.0482958193454 467.0918101581493 C 920.2868720701914 467.0918101581493 918.0482958193454 464.85323390730326 918.0482958193454 462.0918101581493 C 918.0482958193454 459.33038640899537 920.2868720701914 457.0918101581493 923.0482958193454 457.0918101581493 C 925.8097195684994 457.0918101581493 928.0482958193454 459.33038640899537 928.0482958193454 462.0918101581493 Z" stroke-opacity="1" stroke-linecap="round" stroke-linejoin="round" stroke-miterlimit="10"/><path fill="rgb(21,101,192)" stroke="none" paint-order="stroke fill markers" d=" M 1068.9606435623596 309.23773803013404 C 1068.9606435623596 311.999161779288 1066.7220673115135 314.23773803013404 1063.9606435623596 314.23773803013404 C 1061.1992198132057 314.23773803013404 1058.9606435623596 311.999161779288 1058.9606435623596 309.23773803013404 C 1058.9606435623596 306.4763142809801 1061.1992198132057 304.23773803013404 1063.9606435623596 304.23773803013404 C 1066.7220673115135 304.23773803013404 1068.9606435623596 306.4763142809801 1068.9606435623596 309.23773803013404 Z" fill-opacity="1"/><path fill="none" stroke="rgb(0,0,0)" paint-order="fill stroke markers" d=" M 1068.9606435623596 309.23773803013404 C 1068.9606435623596 311.999161779288 1066.7220673115135 314.23773803013404 1063.9606435623596 314.23773803013404 C 1061.1992198132057 314.23773803013404 1058.9606435623596 311.999161779288 1058.9606435623596 309.23773803013404 C 1058.9606435623596 306.4763142809801 1061.1992198132057 304.23773803013404 1063.9606435623596 304.23773803013404 C 1066.7220673115135 304.23773803013404 1068.9606435623596 306.4763142809801 1068.9606435623596 309.23773803013404 Z" stroke-opacity="1" stroke-linecap="round" stroke-linejoin="round" stroke-miterlimit="10"/><path fill="rgb(21,101,192)" stroke="none" paint-order="stroke fill markers" d=" M 935.2133304503461 323.56780729213546 C 935.2133304503461 326.3292310412894 932.9747541995001 328.56780729213546 930.2133304503461 328.56780729213546 C 927.4519067011921 328.56780729213546 925.2133304503461 326.3292310412894 925.2133304503461 323.56780729213546 C 925.2133304503461 320.8063835429815 927.4519067011921 318.56780729213546 930.2133304503461 318.56780729213546 C 932.9747541995001 318.56780729213546 935.2133304503461 320.8063835429815 935.2133304503461 323.56780729213546 Z" fill-opacity="1"/><path fill="none" stroke="rgb(0,0,0)" paint-order="fill stroke markers" d=" M 935.2133304503461 323.56780729213546 C 935.2133304503461 326.3292310412894 932.9747541995001 328.56780729213546 930.2133304503461 328.56780729213546 C 927.4519067011921 328.56780729213546 925.2133304503461 326.3292310412894 925.2133304503461 323.56780729213546 C 925.2133304503461 320.8063835429815 927.4519067011921 318.56780729213546 930.2133304503461 318.56780729213546 C 932.9747541995001 318.56780729213546 935.2133304503461 320.8063835429815 935.2133304503461 323.56780729213546 Z" stroke-opacity="1" stroke-linecap="round" stroke-linejoin="round" stroke-miterlimit="10"/><path fill="rgb(21,101,192)" stroke="none" paint-order="stroke fill markers" d=" M 584.1266335313111 237.58739172012687 C 584.1266335313111 240.34881546928085 581.8880572804651 242.58739172012687 579.1266335313111 242.58739172012687 C 576.3652097821571 242.58739172012687 574.1266335313111 240.34881546928085 574.1266335313111 237.58739172012687 C 574.1266335313111 234.8259679709729 576.3652097821571 232.58739172012687 579.1266335313111 232.58739172012687 C 581.8880572804651 232.58739172012687 584.1266335313111 234.8259679709729 584.1266335313111 237.58739172012687 Z" fill-opacity="1"/><path fill="none" stroke="rgb(0,0,0)" paint-order="fill stroke markers" d=" M 584.1266335313111 237.58739172012687 C 584.1266335313111 240.34881546928085 581.8880572804651 242.58739172012687 579.1266335313111 242.58739172012687 C 576.3652097821571 242.58739172012687 574.1266335313111 240.34881546928085 574.1266335313111 237.58739172012687 C 574.1266335313111 234.8259679709729 576.3652097821571 232.58739172012687 579.1266335313111 232.58739172012687 C 581.8880572804651 232.58739172012687 584.1266335313111 234.8259679709729 584.1266335313111 237.58739172012687 Z" stroke-opacity="1" stroke-linecap="round" stroke-linejoin="round" stroke-miterlimit="10"/><path fill="rgb(21,101,192)" stroke="none" paint-order="stroke fill markers" d=" M 440.8259409112969 142.05359664011735 C 440.8259409112969 144.81502038927133 438.5873646604509 147.05359664011735 435.8259409112969 147.05359664011735 C 433.064517162143 147.05359664011735 430.8259409112969 144.81502038927133 430.8259409112969 142.05359664011735 C 430.8259409112969 139.29217289096337 433.064517162143 137.05359664011735 435.8259409112969 137.05359664011735 C 438.5873646604509 137.05359664011735 440.8259409112969 139.29217289096337 440.8259409112969 142.05359664011735 Z" fill-opacity="1"/><path fill="none" stroke="rgb(0,0,0)" paint-order="fill stroke markers" d=" M 440.8259409112969 142.05359664011735 C 440.8259409112969 144.81502038927133 438.5873646604509 147.05359664011735 435.8259409112969 147.05359664011735 C 433.064517162143 147.05359664011735 430.8259409112969 144.81502038927133 430.8259409112969 142.05359664011735 C 430.8259409112969 139.29217289096337 433.064517162143 137.05359664011735 435.8259409112969 137.05359664011735 C 438.5873646604509 137.05359664011735 440.8259409112969 139.29217289096337 440.8259409112969 142.05359664011735 Z" stroke-opacity="1" stroke-linecap="round" stroke-linejoin="round" stroke-miterlimit="10"/><path fill="rgb(21,101,192)" stroke="none" paint-order="stroke fill markers" d=" M 677.2720837343205 142.05359664011735 C 677.2720837343205 144.81502038927133 675.0335074834745 147.05359664011735 672.2720837343205 147.05359664011735 C 669.5106599851665 147.05359664011735 667.2720837343205 144.81502038927133 667.2720837343205 142.05359664011735 C 667.2720837343205 139.29217289096337 669.5106599851665 137.05359664011735 672.2720837343205 137.05359664011735 C 675.0335074834745 137.05359664011735 677.2720837343205 139.29217289096337 677.2720837343205 142.05359664011735 Z" fill-opacity="1"/><path fill="none" stroke="rgb(0,0,0)" paint-order="fill stroke markers" d=" M 677.2720837343205 142.05359664011735 C 677.2720837343205 144.81502038927133 675.0335074834745 147.05359664011735 672.2720837343205 147.05359664011735 C 669.5106599851665 147.05359664011735 667.2720837343205 144.81502038927133 667.2720837343205 142.05359664011735 C 667.2720837343205 139.29217289096337 669.5106599851665 137.05359664011735 672.2720837343205 137.05359664011735 C 675.0335074834745 137.05359664011735 677.2720837343205 139.29217289096337 677.2720837343205 142.05359664011735 Z" stroke-opacity="1" stroke-linecap="round" stroke-linejoin="round" stroke-miterlimit="10"/><path fill="rgb(21,101,192)" stroke="none" paint-order="stroke fill markers" d=" M 885.0580880333413 132.5002171321164 C 885.0580880333413 135.26164088127038 882.8195117824953 137.5002171321164 880.0580880333413 137.5002171321164 C 877.2966642841873 137.5002171321164 875.0580880333413 135.26164088127038 875.0580880333413 132.5002171321164 C 875.0580880333413 129.73879338296243 877.2966642841873 127.5002171321164 880.0580880333413 127.5002171321164 C 882.8195117824953 127.5002171321164 885.0580880333413 129.73879338296243 885.0580880333413 132.5002171321164 Z" fill-opacity="1"/><path fill="none" stroke="rgb(0,0,0)" paint-order="fill stroke markers" d=" M 885.0580880333413 132.5002171321164 C 885.0580880333413 135.26164088127038 882.8195117824953 137.5002171321164 880.0580880333413 137.5002171321164 C 877.2966642841873 137.5002171321164 875.0580880333413 135.26164088127038 875.0580880333413 132.5002171321164 C 875.0580880333413 129.73879338296243 877.2966642841873 127.5002171321164 880.0580880333413 127.5002171321164 C 882.8195117824953 127.5002171321164 885.0580880333413 129.73879338296243 885.0580880333413 132.5002171321164 Z" stroke-opacity="1" stroke-linecap="round" stroke-linejoin="round" stroke-miterlimit="10"/><path fill="rgb(21,101,192)" stroke="none" paint-order="stroke fill markers" d=" M 973.42684848235 218.48063270412496 C 973.42684848235 221.24205645327893 971.188272231504 223.48063270412496 968.42684848235 223.48063270412496 C 965.665424733196 223.48063270412496 963.42684848235 221.24205645327893 963.42684848235 218.48063270412496 C 963.42684848235 215.71920895497098 965.665424733196 213.48063270412496 968.42684848235 213.48063270412496 C 971.188272231504 213.48063270412496 973.42684848235 215.71920895497098 973.42684848235 218.48063270412496 Z" fill-opacity="1"/><path fill="none" stroke="rgb(0,0,0)" paint-order="fill stroke markers" d=" M 973.42684848235 218.48063270412496 C 973.42684848235 221.24205645327893 971.188272231504 223.48063270412496 968.42684848235 223.48063270412496 C 965.665424733196 223.48063270412496 963.42684848235 221.24205645327893 963.42684848235 218.48063270412496 C 963.42684848235 215.71920895497098 965.665424733196 213.48063270412496 968.42684848235 213.48063270412496 C 971.188272231504 213.48063270412496 973.42684848235 215.71920895497098 973.42684848235 218.48063270412496 Z" stroke-opacity="1" stroke-linecap="round" stroke-linejoin="round" stroke-miterlimit="10"/><path fill="rgb(21,101,192)" stroke="none" paint-order="stroke fill markers" d=" M 581.738288654311 548.0722257301579 C 581.738288654311 550.8336494793119 579.499712403465 553.0722257301579 576.738288654311 553.0722257301579 C 573.976864905157 553.0722257301579 571.738288654311 550.8336494793119 571.738288654311 548.0722257301579 C 571.738288654311 545.3108019810039 573.976864905157 543.0722257301579 576.738288654311 543.0722257301579 C 579.499712403465 543.0722257301579 581.738288654311 545.3108019810039 581.738288654311 548.0722257301579 Z" fill-opacity="1"/><path fill="none" stroke="rgb(0,0,0)" paint-order="fill stroke markers" d=" M 581.738288654311 548.0722257301579 C 581.738288654311 550.8336494793119 579.499712403465 553.0722257301579 576.738288654311 553.0722257301579 C 573.976864905157 553.0722257301579 571.738288654311 550.8336494793119 571.738288654311 548.0722257301579 C 571.738288654311 545.3108019810039 573.976864905157 543.0722257301579 576.738288654311 543.0722257301579 C 579.499712403465 543.0722257301579 581.738288654311 545.3108019810039 581.738288654311 548.0722257301579 Z" stroke-opacity="1" stroke-linecap="round" stroke-linejoin="round" stroke-miterlimit="10"/><path fill="rgb(21,101,192)" stroke="none" paint-order="stroke fill markers" d=" M 519.6413218523047 232.81070196612637 C 519.6413218523047 235.57212571528035 517.4027456014587 237.81070196612637 514.6413218523047 237.81070196612637 C 511.87989810315077 237.81070196612637 509.6413218523047 235.57212571528035 509.6413218523047 232.81070196612637 C 509.6413218523047 230.0492782169724 511.87989810315077 227.81070196612637 514.6413218523047 227.81070196612637 C 517.4027456014587 227.81070196612637 519.6413218523047 230.0492782169724 519.6413218523047 232.81070196612637 Z" fill-opacity="1"/><path fill="none" stroke="rgb(0,0,0)" paint-order="fill stroke markers" d=" M 519.6413218523047 232.81070196612637 C 519.6413218523047 235.57212571528035 517.4027456014587 237.81070196612637 514.6413218523047 237.81070196612637 C 511.87989810315077 237.81070196612637 509.6413218523047 235.57212571528035 509.6413218523047 232.81070196612637 C 509.6413218523047 230.0492782169724 511.87989810315077 227.81070196612637 514.6413218523047 227.81070196612637 C 517.4027456014587 227.81070196612637 519.6413218523047 230.0492782169724 519.6413218523047 232.81070196612637 Z" stroke-opacity="1" stroke-linecap="round" stroke-linejoin="round" stroke-miterlimit="10"/><text fill="rgb(0,0,0)" stroke="none" font-family="geogebra-sans-serif, sans-serif" font-size="16px" font-style="normal" font-weight="normal" text-decoration="normal" x="135" y="68" text-anchor="start" dominant-baseline="alphabetic" fill-opacity="1">Hull 1</text><text fill="rgb(0,0,0)" stroke="none" font-family="geogebra-sans-serif, sans-serif" font-size="16px" font-style="normal" font-weight="normal" text-decoration="normal" x="503" y="63" text-anchor="start" dominant-baseline="alphabetic" fill-opacity="1">Hull 2</text><text fill="rgb(0,0,0)" stroke="none" font-family="geogebra-sans-serif, sans-serif" font-size="16px" font-style="normal" font-weight="normal" text-decoration="normal" x="906" y="68" text-anchor="start" dominant-baseline="alphabetic" fill-opacity="1">Hull 3</text></g></g></svg>