<svg version="1.1" xmlns="http://www.w3.org/2000/svg" xmlns:xlink="http://www.w3.org/1999/xlink" width="1156" height="600"><defs><clipPath id="tcuneXtAuIyT"><path fill="none" stroke="none" d=" M 0 0 L 1156 0 L 1156 600 L 0 600 L 0 0 Z"/></clipPath></defs><g transform="scale(1,1)" clip-path="url(#tcuneXtAuIyT)"><g><rect fill="rgb(255,255,255)" stroke="none" x="0" y="0" width="1156" height="600" fill-opacity="1"/><path fill="none" stroke="rgb(97,97,97)" paint-order="fill stroke markers" d=" M 300.2267942474286 55.13634714473949 L 764.9984492616356 425.30982392789025" stroke-opacity="0.8" stroke-linejoin="round" stroke-miterlimit="10" stroke-width="2.5" stroke-dasharray="2.5,3"/><path fill="none" stroke="rgb(97,97,97)" paint-order="fill stroke markers" d=" M 300.2267942474286 55.13634714473949 L 320.13173001260066 360.3453622107116" stroke-opacity="0.8" stroke-linecap="round" stroke-linejoin="round" stroke-miterlimit="10" stroke-width="2.5"/><path fill="none" stroke="rgb(97,97,97)" paint-order="fill stroke markers" d=" M 320.13173001260066 360.3453622107116 L 532.4510448411028 566.0296984508233" stroke-opacity="0.8" stroke-linecap="round" stroke-linejoin="round" stroke-miterlimit="10" stroke-width="2.5"/><path fill="none" stroke="rgb(97,97,97)" paint-order="fill stroke markers" d=" M 532.4510448411028 566.0296984508233 L 539.3790883855654 141.2921913344329" stroke-opacity="0.8" stroke-linejoin="round" stroke-miterlimit="10" stroke-width="2.5" stroke-dasharray="2.5,3"/><path fill="none" stroke="rgb(97,97,97)" paint-order="fill stroke markers" d=" M 539.3790883855654 141.2921913344329 L 857.5649956722466 35.23141137956742" stroke-opacity="0.8" stroke-linejoin="round" stroke-miterlimit="10" stroke-width="2.5" stroke-dasharray="2.5,3"/><path fill="none" stroke="rgb(97,97,97)" paint-order="fill stroke markers" d=" M 857.5649956722466 35.23141137956742 L 764.9984492616356 425.30982392789025" stroke-opacity="0.8" stroke-linecap="round" stroke-linejoin="round" stroke-miterlimit="10" stroke-width="2.5"/><path fill="none" stroke="rgb(97,97,97)" paint-order="fill stroke markers" d=" M 857.5649956722466 35.23141137956742 L 300.2267942474286 55.13634714473949" stroke-opacity="0.8" stroke-linecap="round" stroke-linejoin="round" stroke-miterlimit="10" stroke-width="2.5"/><path fill="none" stroke="rgb(97,97,97)" paint-order="fill stroke markers" d=" M 320.13173001260066 360.3453622107116 L 857.5649956722466 35.23141137956742" stroke-opacity="0.8" stroke-linejoin="round" stroke-miterlimit="10" stroke-width="2.5" stroke-dasharray="2.5,3"/><path fill="none" stroke="rgb(97,97,97)" paint-order="fill stroke markers" d=" M 539.3790883855654 141.2921913344329 L 300.2267942474286 55.13634714473949" stroke-opacity="0.8" stroke-linejoin="round" stroke-miterlimit="10" stroke-width="2.5" stroke-dasharray="2.5,3"/><path fill="none" stroke="rgb(97,97,97)" paint-order="fill stroke markers" d=" M 764.9984492616356 425.30982392789025 L 532.4510448411028 566.0296984508233" stroke-opacity="0.8" stroke-linecap="round" stroke-linejoin="round" stroke-miterlimit="10" stroke-width="2.5"/><path fill="none" stroke="rgb(97,97,97)" paint-order="fill stroke markers" d=" M 539.3790883855654 141.2921913344329 L 764.9984492616356 425.30982392789025" stroke-opacity="0.8" stroke-linejoin="round" stroke-miterlimit="10" stroke-width="2.5" stroke-dasharray="2.5,3"/><path fill="none" stroke="rgb(97,97,97)" paint-order="fill stroke markers" d=" M 764.9984492616356 425.30982392789025 L 320.13173001260066 360.3453622107116" stroke-opacity="0.8" stroke-linejoin="round" stroke-miterlimit="10" stroke-width="2.5" stroke-dasharray="2.5,3"/><path fill="none" stroke="rgb(97,97,97)" paint-order="fill stroke markers" d=" M 320.13173001260066 360.3453622107116 L 539.3790883855654 141.2921913344329" stroke-opacity="0.8" stroke-linejoin="round" stroke-miterlimit="10" stroke-width="2.5" stroke-dasharray="2.5,3"/><path fill="none" stroke="rgb(97,97,97)" paint-order="fill stroke markers" d=" M 300.2267942474286 55.13634714473949 L 532.4510448411028 566.0296984508233" stroke-opacity="0.8" stroke-linejoin="round" stroke-miterlimit="10" stroke-width="2.5" stroke-dasharray="2.5,3"/><path fill="none" stroke="rgb(97,97,97)" paint-order="fill stroke markers" d=" M 532.4510448411028 566.0296984508233 L 857.5649956722466 35.23141137956742" stroke-opacity="0.8" stroke-linejoin="round" stroke-miterlimit="10" stroke-width="2.5" stroke-dasharray="2.5,3"/><path fill="rgb(21,101,192)" stroke="none" paint-order="stroke fill markers" d=" M 769.9984492616356 425.30982392789025 C 769.9984492616356 428.0712476770442 767.7598730107896 430.30982392789025 764.9984492616356 430.30982392789025 C 762.2370255124816 430.30982392789025 759.9984492616356 428.0712476770442 759.9984492616356 425.30982392789025 C 759.9984492616356 422.5484001787363 762.2370255124816 420.30982392789025 764.9984492616356 420.30982392789025 C 767.7598730107896 420.30982392789025 769.9984492616356 422.5484001787363 769.9984492616356 425.30982392789025 Z" fill-opacity="1"/><path fill="none" stroke="rgb(0,0,0)" paint-order="fill stroke markers" d=" M 769.9984492616356 425.30982392789025 C 769.9984492616356 428.0712476770442 767.7598730107896 430.30982392789025 764.9984492616356 430.30982392789025 C 762.2370255124816 430.30982392789025 759.9984492616356 428.0712476770442 759.9984492616356 425.30982392789025 C 759.9984492616356 422.5484001787363 762.2370255124816 420.30982392789025 764.9984492616356 420.30982392789025 C 767.7598730107896 420.30982392789025 769.9984492616356 422.5484001787363 769.9984492616356 425.30982392789025 Z" stroke-opacity="1" stroke-linecap="round" stroke-linejoin="round" stroke-miterlimit="10"/><path fill="rgb(21,101,192)" stroke="none" paint-order="stroke fill markers" d=" M 305.2267942474286 55.13634714473949 C 305.2267942474286 57.89777089389345 302.98821799658253 60.13634714473949 300.2267942474286 60.13634714473949 C 297.46537049827464 60.13634714473949 295.2267942474286 57.89777089389345 295.2267942474286 55.13634714473949 C 295.2267942474286 52.37492339558552 297.46537049827464 50.13634714473949 300.2267942474286 50.13634714473949 C 302.98821799658253 50.13634714473949 305.2267942474286 52.37492339558552 305.2267942474286 55.13634714473949 Z" fill-opacity="1"/><path fill="none" stroke="rgb(0,0,0)" paint-order="fill stroke markers" d=" M 305.2267942474286 55.13634714473949 C 305.2267942474286 57.89777089389345 302.98821799658253 60.13634714473949 300.2267942474286 60.13634714473949 C 297.46537049827464 60.13634714473949 295.2267942474286 57.89777089389345 295.2267942474286 55.13634714473949 C 295.2267942474286 52.37492339558552 297.46537049827464 50.13634714473949 300.2267942474286 50.13634714473949 C 302.98821799658253 50.13634714473949 305.2267942474286 52.37492339558552 305.2267942474286 55.13634714473949 Z" stroke-opacity="1" stroke-linecap="round" stroke-linejoin="round" stroke-miterlimit="10"/><path fill="rgb(21,101,192)" stroke="none" paint-order="stroke fill markers" d=" M 325.13173001260066 360.3453622107116 C 325.13173001260066 363.10678595986553 322.8931537617546 365.3453622107116 320.13173001260066 365.3453622107116 C 317.3703062634467 365.3453622107116 315.13173001260066 363.10678595986553 315.13173001260066 360.3453622107116 C 315.13173001260066 357.58393846155764 317.3703062634467 355.3453622107116 320.13173001260066 355.3453622107116 C 322.8931537617546 355.3453622107116 325.13173001260066 357.58393846155764 325.13173001260066 360.3453622107116 Z" fill-opacity="1"/><path fill="none" stroke="rgb(0,0,0)" paint-order="fill stroke markers" d=" M 325.13173001260066 360.3453622107116 C 325.13173001260066 363.10678595986553 322.8931537617546 365.3453622107116 320.13173001260066 365.3453622107116 C 317.3703062634467 365.3453622107116 315.13173001260066 363.10678595986553 315.13173001260066 360.3453622107116 C 315.13173001260066 357.58393846155764 317.3703062634467 355.3453622107116 320.13173001260066 355.3453622107116 C 322.8931537617546 355.3453622107116 325.13173001260066 357.58393846155764 325.13173001260066 360.3453622107116 Z" stroke-opacity="1" stroke-linecap="round" stroke-linejoin="round" stroke-miterlimit="10"/><path fill="rgb(21,101,192)" stroke="none" paint-order="stroke fill markers" d=" M 537.4510448411028 566.0296984508233 C 537.4510448411028 568.7911221999773 535.2124685902568 571.0296984508233 532.4510448411028 571.0296984508233 C 529.6896210919488 571.0296984508233 527.4510448411028 568.7911221999773 527.4510448411028 566.0296984508233 C 527.4510448411028 563.2682747016693 529.6896210919488 561.0296984508233 532.4510448411028 561.0296984508233 C 535.2124685902568 561.0296984508233 537.4510448411028 563.2682747016693 537.4510448411028 566.0296984508233 Z" fill-opacity="1"/><path fill="none" stroke="rgb(0,0,0)" paint-order="fill stroke markers" d=" M 537.4510448411028 566.0296984508233 C 537.4510448411028 568.7911221999773 535.2124685902568 571.0296984508233 532.4510448411028 571.0296984508233 C 529.6896210919488 571.0296984508233 527.4510448411028 568.7911221999773 527.4510448411028 566.0296984508233 C 527.4510448411028 563.2682747016693 529.6896210919488 561.0296984508233 532.4510448411028 561.0296984508233 C 535.2124685902568 561.0296984508233 537.4510448411028 563.2682747016693 537.4510448411028 566.0296984508233 Z" stroke-opacity="1" stroke-linecap="round" stroke-linejoin="round" stroke-miterlimit="10"/><path fill="rgb(21,101,192)" stroke="none" paint-order="stroke fill markers" d=" M 544.3790883855654 141.2921913344329 C 544.3790883855654 144.0536150835869 542.1405121347194 146.2921913344329 539.3790883855654 146.2921913344329 C 536.6176646364114 146.2921913344329 534.3790883855654 144.0536150835869 534.3790883855654 141.2921913344329 C 534.3790883855654 138.53076758527894 536.6176646364114 136.2921913344329 539.3790883855654 136.2921913344329 C 542.1405121347194 136.2921913344329 544.3790883855654 138.53076758527894 544.3790883855654 141.2921913344329 Z" fill-opacity="1"/><path fill="none" stroke="rgb(0,0,0)" paint-order="fill stroke markers" d=" M 544.3790883855654 141.2921913344329 C 544.3790883855654 144.0536150835869 542.1405121347194 146.2921913344329 539.3790883855654 146.2921913344329 C 536.6176646364114 146.2921913344329 534.3790883855654 144.0536150835869 534.3790883855654 141.2921913344329 C 534.3790883855654 138.53076758527894 536.6176646364114 136.2921913344329 539.3790883855654 136.2921913344329 C 542.1405121347194 136.2921913344329 544.3790883855654 138.53076758527894 544.3790883855654 141.2921913344329 Z" stroke-opacity="1" stroke-linecap="round" stroke-linejoin="round" stroke-miterlimit="10"/><path fill="rgb(21,101,192)" stroke="none" paint-order="stroke fill markers" d=" M 862.5649956722466 35.23141137956742 C 862.5649956722466 37.99283512872138 860.3264194214006 40.23141137956742 857.5649956722466 40.23141137956742 C 854.8035719230926 40.23141137956742 852.5649956722466 37.99283512872138 852.5649956722466 35.23141137956742 C 852.5649956722466 32.46998763041345 854.8035719230926 30.23141137956742 857.5649956722466 30.23141137956742 C 860.3264194214006 30.23141137956742 862.5649956722466 32.46998763041345 862.5649956722466 35.23141137956742 Z" fill-opacity="1"/><path fill="none" stroke="rgb(0,0,0)" paint-order="fill stroke markers" d=" M 862.5649956722466 35.23141137956742 C 862.5649956722466 37.99283512872138 860.3264194214006 40.23141137956742 857.5649956722466 40.23141137956742 C 854.8035719230926 40.23141137956742 852.5649956722466 37.99283512872138 852.5649956722466 35.23141137956742 C 852.5649956722466 32.46998763041345 854.8035719230926 30.23141137956742 857.5649956722466 30.23141137956742 C 860.3264194214006 30.23141137956742 862.5649956722466 32.46998763041345 862.5649956722466 35.23141137956742 Z" stroke-opacity="1" stroke-linecap="round" stroke-linejoin="round" stroke-miterlimit="10"/></g></g></svg>